<?xml version="1.0" encoding="iso-8859-1"?>
<!-- Uploaded to: SVG Repo, www.svgrepo.com, Generator: SVG Repo Mixer Tools -->
<svg version="1.1" id="Layer_1" xmlns="http://www.w3.org/2000/svg" xmlns:xlink="http://www.w3.org/1999/xlink" 
	 viewBox="0 0 400 400" xml:space="preserve">
<g id="XMLID_807_">
	<g id="XMLID_808_">
		<polygon id="XMLID_75_" style="fill:#ACABB1;" points="90,320 90,0 290,0 350,60 350,320 		"/>
		<polygon id="XMLID_809_" style="fill:#818085;" points="290,0 350,60 290,60 		"/>
	</g>
	<g id="XMLID_810_">
		<polygon id="XMLID_72_" style="fill:#EEEEEF;" points="70,360 70,40 270,40 330,100 330,360 		"/>
		<polygon id="XMLID_811_" style="fill:#DEDDE0;" points="270,40 330,100 270,100 		"/>
	</g>
	<polygon id="XMLID_68_" style="fill:#78B9EB;" points="50,400 50,80 250,80 310,140 310,400 	"/>
	<polygon id="XMLID_812_" style="fill:#5A8BB0;" points="310,253.75 50,400 310,400 	"/>
	<rect id="XMLID_813_" x="110" y="200" style="fill:#DEDDE0;" width="140" height="20"/>
	<rect id="XMLID_814_" x="110" y="240" style="fill:#DEDDE0;" width="140" height="20"/>
	<rect id="XMLID_815_" x="110" y="160" style="fill:#FFFFFF;" width="70" height="20"/>
	<rect id="XMLID_816_" x="110" y="200" style="fill:#FFFFFF;" width="70" height="20"/>
	<rect id="XMLID_817_" x="110" y="240" style="fill:#FFFFFF;" width="70" height="20"/>
	<rect id="XMLID_818_" x="110" y="280" style="fill:#DEDDE0;" width="140" height="20"/>
	<rect id="XMLID_819_" x="110" y="280" style="fill:#FFFFFF;" width="70" height="20"/>
	<rect id="XMLID_820_" x="110" y="320" style="fill:#DEDDE0;" width="140" height="20"/>
	<rect id="XMLID_821_" x="110" y="320" style="fill:#FFFFFF;" width="70" height="20"/>
	<polygon id="XMLID_822_" style="fill:#1E2E3B;" points="250,80 310,140 250,140 	"/>
</g>
</svg>